PathFileType	4	(X/Y/Z)	D:\TRACE\spotREDO_2-26-24\spot_justBody_Motion_2_8-platform.trc
DataRate	CameraRate	NumFrames	NumMarkers	Units	OrigDataRate	OrigDataStartFrame	OrigNumFrames
100.00	100.00	      42	5	mm	100.00	1751	      7000
Frame#	Time	Left_Front			Right_Front			Left_Aft			Right_Aft			Post			
		X1	Y1	Z1	X2	Y2	Z2	X3	Y3	Z3	X4	Y4	Z4	X5	Y5	Z5	

1751	17.500	-648.20093	31.53835	-565.50610	766.71985	35.93634	-480.88644	-719.07043	-32.89325	651.79865	851.11932	-25.39346	655.09088	61.01357	682.37018	-934.00867	
1752	17.510	-647.73511	33.01445	-565.06897	766.90118	37.01568	-480.65891	-718.88348	-34.10706	651.89819	851.52563	-26.61468	655.35626	60.98794	684.20630	-932.58374	
1753	17.520	-647.45972	33.86694	-564.79675	766.97827	37.88229	-480.50656	-718.47296	-35.19154	652.20074	851.91620	-27.49620	655.46472	60.89818	685.94421	-930.90875	
1754	17.530	-647.19635	34.98406	-564.32349	767.63568	38.87413	-479.96338	-718.11810	-36.28192	652.46887	852.12555	-28.91047	655.65649	61.41619	687.41748	-929.46112	
1755	17.540	-647.18073	35.96802	-564.05823	767.73334	39.68378	-479.68524	-717.94098	-37.44724	652.70355	852.21729	-29.73157	656.10785	61.91634	689.19122	-928.21448	
1756	17.550	-646.81842	36.80465	-563.74951	767.99969	40.57625	-479.27277	-717.62598	-38.07129	652.90521	852.66174	-30.39290	656.41614	62.28254	690.73676	-926.74725	
1757	17.560	-646.96405	38.16615	-563.38336	768.26971	41.48156	-478.89911	-717.50867	-39.18920	652.95636	852.60956	-31.92016	656.51263	62.50661	692.41272	-925.12054	
1758	17.570	-646.44867	38.76337	-563.00629	768.41016	42.15626	-478.72681	-717.46716	-40.47081	653.12695	852.74243	-33.02949	656.32776	62.56617	693.90619	-923.73419	
1759	17.580	-646.64453	39.67340	-562.69269	768.34241	42.78325	-478.51318	-717.32416	-41.58070	653.31311	852.85986	-33.91492	656.85938	62.90786	695.31848	-922.27692	
1760	17.590	-646.57715	40.65889	-562.44202	768.44220	43.51297	-478.03580	-717.49384	-42.40173	653.57355	853.01404	-34.87047	657.00543	63.26040	696.58398	-920.73260	
1761	17.600	-646.56305	41.45457	-562.18262	768.50903	44.51426	-477.79871	-717.43726	-43.12239	653.77747	852.95477	-35.59663	657.09949	62.90886	698.12909	-919.51056	
1762	17.610	-646.46527	41.93008	-561.98639	768.39313	45.12059	-477.64957	-717.32385	-44.07703	653.88477	852.82599	-36.66457	657.39008	63.40933	699.23584	-918.51996	
1763	17.620	-646.64697	43.19116	-561.77582	768.43433	45.87438	-477.36023	-717.36823	-44.96350	654.16858	852.76221	-37.39042	657.47620	62.58907	700.49402	-917.22961	
1764	17.630	-646.59375	43.77130	-561.50220	768.24481	46.39440	-477.11685	-717.52094	-45.57944	654.14868	852.80664	-38.05131	657.49390	62.19986	701.95026	-916.46161	
1765	17.640	-646.73145	44.27546	-561.23596	768.16357	46.81667	-476.69055	-717.54797	-46.57069	654.28064	852.66211	-39.10055	657.63489	62.22521	702.74384	-915.25085	
1766	17.650	-647.16577	45.16304	-560.88080	767.69812	47.61504	-476.44662	-717.86200	-47.35069	654.50336	852.51141	-40.17514	657.67865	61.62538	704.13232	-914.36487	
1767	17.660	-647.47388	45.88289	-560.63788	767.31195	48.15459	-476.15866	-718.18591	-47.98896	654.61407	852.18018	-40.60976	657.61761	61.24130	705.15845	-913.71906	
1768	17.670	-647.84943	46.57478	-560.49921	766.95044	48.78293	-476.05673	-718.57532	-48.75265	654.65289	851.76794	-41.16677	658.01685	61.27090	706.38184	-912.62152	
1769	17.680	-648.06409	47.09816	-560.35352	766.70233	49.40578	-475.99780	-718.76642	-49.38663	654.80414	851.35248	-41.94778	658.09204	60.62550	707.43964	-911.86462	
1770	17.690	-648.44073	47.77829	-560.18439	766.32147	49.78312	-475.78076	-719.14703	-50.03145	654.89972	851.06866	-42.49878	658.12756	60.28313	708.21667	-910.80164	
1771	17.700	-648.56635	48.11209	-559.94397	766.07825	50.28397	-475.74002	-719.44879	-50.45243	655.00336	850.81281	-43.16538	658.21362	60.30001	708.99689	-909.78198	
1772	17.710	-648.86389	48.40471	-559.74133	765.75525	50.45846	-475.43997	-720.04846	-50.95065	654.96136	850.60059	-43.65021	658.49542	59.78146	709.82397	-908.85492	
1773	17.720	-649.54639	48.93120	-559.47839	765.22247	50.87936	-475.17230	-720.20465	-51.44203	655.29492	850.68988	-43.42865	658.54858	58.86098	710.46027	-907.94165	
1774	17.730	-650.12506	49.56788	-559.22211	764.87494	51.32899	-475.07587	-720.82843	-52.09642	655.29803	849.80756	-44.18320	658.89496	58.78333	711.24432	-907.21350	
1775	17.740	-650.61700	49.99499	-559.01538	764.44995	51.69440	-474.88147	-721.21924	-52.68653	655.36060	849.16907	-44.48482	659.04980	58.53852	711.91486	-906.73431	
1776	17.750	-651.01904	50.24516	-558.95282	763.95752	52.04670	-474.73355	-721.66028	-53.09777	655.51648	848.65448	-44.84372	659.26685	57.97027	712.50336	-906.27911	
1777	17.760	-651.49652	50.56717	-558.77081	763.61871	52.27317	-474.53998	-722.03503	-53.35525	655.55652	848.19470	-45.28879	659.16608	57.50180	713.00836	-905.95477	
1778	17.770	-651.83392	50.81659	-558.78967	763.02002	52.47683	-474.34851	-722.65601	-53.76341	655.45477	847.76294	-45.75423	659.08313	56.94336	713.40051	-905.59662	
1779	17.780	-652.40009	51.34023	-558.76666	762.48022	52.90673	-474.36838	-723.11792	-54.00272	655.56287	847.27057	-46.18512	658.96906	56.60839	713.97778	-905.27209	
1780	17.790	-652.88928	51.60698	-558.72266	762.06073	53.36916	-474.44516	-723.65857	-54.21838	655.62811	846.90979	-46.56123	659.12750	56.27264	714.52472	-905.07721	
1781	17.800	-653.63019	51.94028	-558.57001	761.63550	53.36964	-474.20087	-723.99414	-54.49955	655.68408	846.39612	-46.67577	659.52710	55.76784	715.01288	-904.66858	
1782	17.810	-653.90387	52.08197	-558.44000	760.97919	53.55815	-474.19641	-724.47333	-54.93559	655.82422	846.01434	-47.01855	659.59619	55.36381	715.32764	-904.26819	
1783	17.820	-654.54358	52.19060	-558.36597	760.26581	53.55350	-474.05103	-725.14978	-55.18627	655.80872	845.60004	-47.18705	659.65076	54.55917	715.53705	-903.81232	
1784	17.830	-654.94495	52.21994	-558.20172	759.66418	53.67155	-474.11136	-725.65948	-55.29817	655.81653	844.78326	-47.31010	659.49133	53.90445	715.82056	-903.38196	
1785	17.840	-655.61450	52.26987	-558.13696	759.11621	53.76140	-474.08719	-726.35333	-55.45195	656.00281	843.72137	-47.76470	659.13605	53.79859	715.89026	-903.19629	
1786	17.850	-656.55426	52.45132	-558.04163	758.45532	53.81023	-473.99384	-726.92645	-55.61736	656.03693	843.17651	-47.65141	659.34625	52.46214	716.16705	-902.89508	
1787	17.860	-657.13599	52.60047	-558.05054	757.71368	54.01697	-474.03281	-727.54211	-55.63641	655.94470	842.57458	-47.91943	659.47449	51.65546	716.20953	-902.67822	
1788	17.870	-657.68091	52.60379	-558.14923	757.23517	53.89515	-473.97745	-728.04132	-55.96511	656.09161	841.84241	-47.76548	659.43610	50.38765	715.99463	-902.79456	
1789	17.880	-658.37347	52.70287	-558.27893	756.66846	53.92717	-473.96460	-729.15521	-55.20582	655.80493	841.31970	-47.94370	659.45258	50.63854	715.93311	-902.69208	
1790	17.890	-658.84979	52.61862	-558.23273	755.84570	54.14523	-474.11069	-729.88910	-55.14185	655.59680	840.50909	-47.65757	659.63129	50.20330	716.00916	-902.98242	
1791	17.900	-659.77454	52.43899	-558.25018	755.02405	54.13017	-474.12427	-730.56848	-55.13158	655.61121	839.90643	-47.34709	659.63092	49.29521	715.96014	-903.32715	
1792	17.910	-660.55280	52.37144	-558.35815	754.39252	53.85800	-474.15039	-731.19861	-54.96749	655.70667	839.16248	-47.79903	659.68030	48.43166	715.77295	-903.92163	
